<?xml version="1.0" encoding="UTF-8" standalone="no"?>
<!DOCTYPE svg PUBLIC "-//W3C//DTD SVG 1.1//EN"
 "http://www.w3.org/Graphics/SVG/1.1/DTD/svg11.dtd">
<!-- Generated by graphviz version 7.1.0 (20230121.1956)
 -->
<!-- Pages: 1 -->
<svg width="2755pt" height="260pt"
 viewBox="0.00 0.00 2755.39 260.00" xmlns="http://www.w3.org/2000/svg" xmlns:xlink="http://www.w3.org/1999/xlink">
<g id="graph0" class="graph" transform="scale(1 1) rotate(0) translate(4 256)">
<polygon fill="white" stroke="none" points="-4,4 -4,-256 2751.39,-256 2751.39,4 -4,4"/>
<!-- [root] var.example_list_set -->
<g id="node1" class="node">
<title>[root] var.example_list_set</title>
<polygon fill="none" stroke="black" points="124,-180 0,-180 0,-144 130,-144 130,-174 124,-180"/>
<polyline fill="none" stroke="black" points="124,-180 124,-174"/>
<polyline fill="none" stroke="black" points="130,-174 124,-174"/>
<text text-anchor="middle" x="65" y="-158.3" font-family="Times New Roman,serif" font-size="14.00">var.example_list_set</text>
</g>
<!-- [root] local.example_set_as_objects (expand) -->
<g id="node2" class="node">
<title>[root] local.example_set_as_objects (expand)</title>
<ellipse fill="none" stroke="black" cx="1294" cy="-90" rx="176.57" ry="18"/>
<text text-anchor="middle" x="1294" y="-86.3" font-family="Times New Roman,serif" font-size="14.00">[root] local.example_set_as_objects (expand)</text>
</g>
<!-- [root] local.example_set (expand) -->
<g id="node3" class="node">
<title>[root] local.example_set (expand)</title>
<ellipse fill="none" stroke="black" cx="1475" cy="-18" rx="133.48" ry="18"/>
<text text-anchor="middle" x="1475" y="-14.3" font-family="Times New Roman,serif" font-size="14.00">[root] local.example_set (expand)</text>
</g>
<!-- [root] local.example_set_as_objects (expand)&#45;&gt;[root] local.example_set (expand) -->
<g id="edge1" class="edge">
<title>[root] local.example_set_as_objects (expand)&#45;&gt;[root] local.example_set (expand)</title>
<path fill="none" stroke="black" d="M1337.35,-72.23C1362.74,-62.41 1395,-49.94 1421.91,-39.53"/>
<polygon fill="black" stroke="black" points="1422.84,-42.93 1430.9,-36.05 1420.31,-36.4 1422.84,-42.93"/>
</g>
<!-- [root] output.example_list (expand) -->
<g id="node4" class="node">
<title>[root] output.example_list (expand)</title>
<ellipse fill="none" stroke="black" cx="288" cy="-162" rx="139.98" ry="18"/>
<text text-anchor="middle" x="288" y="-158.3" font-family="Times New Roman,serif" font-size="14.00">[root] output.example_list (expand)</text>
</g>
<!-- [root] local.example_list (expand) -->
<g id="node5" class="node">
<title>[root] local.example_list (expand)</title>
<ellipse fill="none" stroke="black" cx="450" cy="-90" rx="133.48" ry="18"/>
<text text-anchor="middle" x="450" y="-86.3" font-family="Times New Roman,serif" font-size="14.00">[root] local.example_list (expand)</text>
</g>
<!-- [root] output.example_list (expand)&#45;&gt;[root] local.example_list (expand) -->
<g id="edge2" class="edge">
<title>[root] output.example_list (expand)&#45;&gt;[root] local.example_list (expand)</title>
<path fill="none" stroke="black" d="M326.8,-144.23C349.14,-134.58 377.43,-122.36 401.26,-112.06"/>
<polygon fill="black" stroke="black" points="402.33,-115.41 410.12,-108.23 399.56,-108.98 402.33,-115.41"/>
</g>
<!-- [root] output.example_list_length (expand) -->
<g id="node6" class="node">
<title>[root] output.example_list_length (expand)</title>
<ellipse fill="none" stroke="black" cx="611" cy="-162" rx="165.97" ry="18"/>
<text text-anchor="middle" x="611" y="-158.3" font-family="Times New Roman,serif" font-size="14.00">[root] output.example_list_length (expand)</text>
</g>
<!-- [root] output.example_list_length (expand)&#45;&gt;[root] local.example_list (expand) -->
<g id="edge3" class="edge">
<title>[root] output.example_list_length (expand)&#45;&gt;[root] local.example_list (expand)</title>
<path fill="none" stroke="black" d="M572.03,-144.05C549.99,-134.48 522.25,-122.41 498.78,-112.21"/>
<polygon fill="black" stroke="black" points="500.29,-109.05 489.72,-108.27 497.5,-115.47 500.29,-109.05"/>
</g>
<!-- [root] output.example_map (expand) -->
<g id="node7" class="node">
<title>[root] output.example_map (expand)</title>
<ellipse fill="none" stroke="black" cx="940" cy="-162" rx="144.87" ry="18"/>
<text text-anchor="middle" x="940" y="-158.3" font-family="Times New Roman,serif" font-size="14.00">[root] output.example_map (expand)</text>
</g>
<!-- [root] local.example_map (expand) -->
<g id="node8" class="node">
<title>[root] local.example_map (expand)</title>
<ellipse fill="none" stroke="black" cx="940" cy="-90" rx="138.38" ry="18"/>
<text text-anchor="middle" x="940" y="-86.3" font-family="Times New Roman,serif" font-size="14.00">[root] local.example_map (expand)</text>
</g>
<!-- [root] output.example_map (expand)&#45;&gt;[root] local.example_map (expand) -->
<g id="edge4" class="edge">
<title>[root] output.example_map (expand)&#45;&gt;[root] local.example_map (expand)</title>
<path fill="none" stroke="black" d="M940,-143.7C940,-136.41 940,-127.73 940,-119.54"/>
<polygon fill="black" stroke="black" points="943.5,-119.62 940,-109.62 936.5,-119.62 943.5,-119.62"/>
</g>
<!-- [root] output.example_set_as_objects_output (expand) -->
<g id="node9" class="node">
<title>[root] output.example_set_as_objects_output (expand)</title>
<ellipse fill="none" stroke="black" cx="1315" cy="-162" rx="211.76" ry="18"/>
<text text-anchor="middle" x="1315" y="-158.3" font-family="Times New Roman,serif" font-size="14.00">[root] output.example_set_as_objects_output (expand)</text>
</g>
<!-- [root] output.example_set_as_objects_output (expand)&#45;&gt;[root] local.example_set_as_objects (expand) -->
<g id="edge5" class="edge">
<title>[root] output.example_set_as_objects_output (expand)&#45;&gt;[root] local.example_set_as_objects (expand)</title>
<path fill="none" stroke="black" d="M1309.81,-143.7C1307.57,-136.24 1304.9,-127.32 1302.39,-118.97"/>
<polygon fill="black" stroke="black" points="1305.79,-118.13 1299.57,-109.55 1299.09,-120.14 1305.79,-118.13"/>
</g>
<!-- [root] output.example_set_output (expand) -->
<g id="node10" class="node">
<title>[root] output.example_set_output (expand)</title>
<ellipse fill="none" stroke="black" cx="1656" cy="-90" rx="167.87" ry="18"/>
<text text-anchor="middle" x="1656" y="-86.3" font-family="Times New Roman,serif" font-size="14.00">[root] output.example_set_output (expand)</text>
</g>
<!-- [root] output.example_set_output (expand)&#45;&gt;[root] local.example_set (expand) -->
<g id="edge6" class="edge">
<title>[root] output.example_set_output (expand)&#45;&gt;[root] local.example_set (expand)</title>
<path fill="none" stroke="black" d="M1612.65,-72.23C1587.26,-62.41 1555,-49.94 1528.09,-39.53"/>
<polygon fill="black" stroke="black" points="1529.69,-36.4 1519.1,-36.05 1527.16,-42.93 1529.69,-36.4"/>
</g>
<!-- [root] root -->
<g id="node11" class="node">
<title>[root] root</title>
<ellipse fill="none" stroke="black" cx="1435" cy="-234" rx="49.29" ry="18"/>
<text text-anchor="middle" x="1435" y="-230.3" font-family="Times New Roman,serif" font-size="14.00">[root] root</text>
</g>
<!-- [root] root&#45;&gt;[root] var.example_list_set -->
<g id="edge16" class="edge">
<title>[root] root&#45;&gt;[root] var.example_list_set</title>
<path fill="none" stroke="black" d="M1385.6,-232.2C1182.34,-228.73 409.07,-213.67 141.47,-180.13"/>
<polygon fill="black" stroke="black" points="142.12,-176.69 131.75,-178.87 141.22,-183.63 142.12,-176.69"/>
</g>
<!-- [root] root&#45;&gt;[root] output.example_list (expand) -->
<g id="edge11" class="edge">
<title>[root] root&#45;&gt;[root] output.example_list (expand)</title>
<path fill="none" stroke="black" d="M1385.81,-231.46C1240.43,-226.68 800.1,-210.54 436,-180 423.54,-178.95 410.51,-177.7 397.57,-176.35"/>
<polygon fill="black" stroke="black" points="398.05,-172.88 387.74,-175.3 397.31,-179.84 398.05,-172.88"/>
</g>
<!-- [root] root&#45;&gt;[root] output.example_list_length (expand) -->
<g id="edge12" class="edge">
<title>[root] root&#45;&gt;[root] output.example_list_length (expand)</title>
<path fill="none" stroke="black" d="M1386.94,-229.33C1279.3,-221.05 1010.64,-200.08 786,-180 771.71,-178.72 756.76,-177.34 741.88,-175.94"/>
<polygon fill="black" stroke="black" points="742.32,-172.46 732.04,-175 741.66,-179.43 742.32,-172.46"/>
</g>
<!-- [root] root&#45;&gt;[root] output.example_map (expand) -->
<g id="edge13" class="edge">
<title>[root] root&#45;&gt;[root] output.example_map (expand)</title>
<path fill="none" stroke="black" d="M1389.76,-226.6C1311.96,-215.6 1150.93,-192.83 1044.17,-177.73"/>
<polygon fill="black" stroke="black" points="1044.94,-174.31 1034.55,-176.37 1043.96,-181.24 1044.94,-174.31"/>
</g>
<!-- [root] root&#45;&gt;[root] output.example_set_as_objects_output (expand) -->
<g id="edge14" class="edge">
<title>[root] root&#45;&gt;[root] output.example_set_as_objects_output (expand)</title>
<path fill="none" stroke="black" d="M1409.55,-218.15C1393.53,-208.81 1372.52,-196.55 1354.38,-185.97"/>
<polygon fill="black" stroke="black" points="1356.35,-183.07 1345.95,-181.05 1352.83,-189.12 1356.35,-183.07"/>
</g>
<!-- [root] root&#45;&gt;[root] output.example_set_output (expand) -->
<g id="edge15" class="edge">
<title>[root] root&#45;&gt;[root] output.example_set_output (expand)</title>
<path fill="none" stroke="black" d="M1465.88,-219.52C1486.56,-209.85 1513.93,-195.78 1536,-180 1554.92,-166.47 1555.71,-158.38 1574,-144 1587.54,-133.36 1603.24,-122.82 1617.26,-113.98"/>
<polygon fill="black" stroke="black" points="1618.71,-117.19 1625.36,-108.94 1615.02,-111.25 1618.71,-117.19"/>
</g>
<!-- [root] local.empty_list (expand) -->
<g id="node12" class="node">
<title>[root] local.empty_list (expand)</title>
<ellipse fill="none" stroke="black" cx="1709" cy="-162" rx="126.18" ry="18"/>
<text text-anchor="middle" x="1709" y="-158.3" font-family="Times New Roman,serif" font-size="14.00">[root] local.empty_list (expand)</text>
</g>
<!-- [root] root&#45;&gt;[root] local.empty_list (expand) -->
<g id="edge7" class="edge">
<title>[root] root&#45;&gt;[root] local.empty_list (expand)</title>
<path fill="none" stroke="black" d="M1474.55,-222.9C1517.3,-211.97 1586.31,-194.34 1638.41,-181.03"/>
<polygon fill="black" stroke="black" points="1638.97,-184.5 1647.79,-178.64 1637.23,-177.72 1638.97,-184.5"/>
</g>
<!-- [root] local.empty_set (expand) -->
<g id="node13" class="node">
<title>[root] local.empty_set (expand)</title>
<ellipse fill="none" stroke="black" cx="1979" cy="-162" rx="126.18" ry="18"/>
<text text-anchor="middle" x="1979" y="-158.3" font-family="Times New Roman,serif" font-size="14.00">[root] local.empty_set (expand)</text>
</g>
<!-- [root] root&#45;&gt;[root] local.empty_set (expand) -->
<g id="edge8" class="edge">
<title>[root] root&#45;&gt;[root] local.empty_set (expand)</title>
<path fill="none" stroke="black" d="M1480.91,-227.09C1567.7,-215.92 1757.75,-191.47 1876.38,-176.2"/>
<polygon fill="black" stroke="black" points="1876.66,-179.7 1886.13,-174.95 1875.77,-172.75 1876.66,-179.7"/>
</g>
<!-- [root] local.list_to_convert_to_map (expand) -->
<g id="node14" class="node">
<title>[root] local.list_to_convert_to_map (expand)</title>
<ellipse fill="none" stroke="black" cx="2299" cy="-162" rx="175.47" ry="18"/>
<text text-anchor="middle" x="2299" y="-158.3" font-family="Times New Roman,serif" font-size="14.00">[root] local.list_to_convert_to_map (expand)</text>
</g>
<!-- [root] root&#45;&gt;[root] local.list_to_convert_to_map (expand) -->
<g id="edge9" class="edge">
<title>[root] root&#45;&gt;[root] local.list_to_convert_to_map (expand)</title>
<path fill="none" stroke="black" d="M1483.18,-229.47C1594.37,-221.27 1877.48,-200.1 2114,-180 2129.41,-178.69 2145.53,-177.28 2161.56,-175.84"/>
<polygon fill="black" stroke="black" points="2161.48,-179.36 2171.13,-174.98 2160.85,-172.39 2161.48,-179.36"/>
</g>
<!-- [root] local.some_tags (expand) -->
<g id="node15" class="node">
<title>[root] local.some_tags (expand)</title>
<ellipse fill="none" stroke="black" cx="2620" cy="-162" rx="127.28" ry="18"/>
<text text-anchor="middle" x="2620" y="-158.3" font-family="Times New Roman,serif" font-size="14.00">[root] local.some_tags (expand)</text>
</g>
<!-- [root] root&#45;&gt;[root] local.some_tags (expand) -->
<g id="edge10" class="edge">
<title>[root] root&#45;&gt;[root] local.some_tags (expand)</title>
<path fill="none" stroke="black" d="M1484.2,-231.79C1634.23,-227.81 2099.15,-213.48 2483,-180 2494.7,-178.98 2506.94,-177.73 2519.08,-176.37"/>
<polygon fill="black" stroke="black" points="2519.15,-179.88 2528.69,-175.27 2518.36,-172.93 2519.15,-179.88"/>
</g>
</g>
</svg>
